#File written by LIBUNFOLD3D. Compilation :Apr 13 2018,19:30:35
mtllib BoiteLp:mtl
#begin vertices
v -5.3 -0.3 5.3
v -5.3 -0.3 -5.3
v -1.6667 -0.3 -5.3
v -1.6667 -0.3 5.3
v -1.6667 0 5
v -1.6667 0 -5
v 1.6667 0 -5
v 1.6667 0 5
v 1.6667 -0.3 5.3
v 1.6667 -0.3 -5.3
v 5.3 -0.3 -5.3
v 5.3 -0.3 5.3
v -5.3 10.3 5.3
v -1.6667 10.3 5.3
v -1.6667 10.3 -5.3
v -5.3 10.3 -5.3
v -1.6667 10 5
v 1.6667 10 5
v 1.6667 10 -5
v -1.6667 10 -5
v 1.6667 10.3 5.3
v 5.3 10.3 5.3
v 5.3 10.3 -5.3
v 1.6667 10.3 -5.3
v -1.6667 3.3333 5.3
v -5.3 3.3333 5.3
v 1.6667 3.3333 5
v -1.6667 3.3333 5
v 5.3 3.3333 5.3
v 1.6667 3.3333 5.3
v -5 3.3333 5
v -1.6667 6.6667 5
v -5 6.6667 5
v 5 3.3333 5
v 5 6.6667 5
v 1.6667 6.6667 5
v -5.3 6.6667 5.3
v -1.6667 6.6667 5.3
v 1.6667 6.6667 5.3
v 5.3 6.6667 5.3
v 5.3 3.3333 -5.3
v 5 3.3333 -5
v 5 6.6667 -5
v 5.3 6.6667 -5.3
v 1.6667 3.3333 -5.3
v -1.6667 3.3333 -5
v 1.6667 3.3333 -5
v -5.3 3.3333 -5.3
v -1.6667 3.3333 -5.3
v 1.6667 6.6667 -5
v -5 3.3333 -5
v -5 6.6667 -5
v -1.6667 6.6667 -5
v 1.6667 6.6667 -5.3
v -1.6667 6.6667 -5.3
v -5.3 6.6667 -5.3
#end vertices

#begin 168 textures vertices 
vt 0.4125133 0.6054326 0
vt 0.4125133 0.3053616 0
vt 0.5229042 0.3053616 0
vt 0.5229042 0.6054326 0
vt 0.864383 0.60877 0
vt 0.864383 0.8918559 0
vt 0.763104 0.8918559 0
vt 0.763104 0.60877 0
vt 0.6382301 0.001953125 0
vt 0.6382301 0.3020242 0
vt 0.5278392 0.3020242 0
vt 0.5278392 0.001953125 0
vt 0.5459694 0.908841 0
vt 0.4355785 0.908841 0
vt 0.4355785 0.60877 0
vt 0.5459694 0.60877 0
vt 0.9704828 0.8918559 0
vt 0.8692038 0.8918559 0
vt 0.8692038 0.60877 0
vt 0.9704828 0.60877 0
vt 0.1999917 0.8318229 0
vt 0.0896008 0.8318229 0
vt 0.0896008 0.5317518 0
vt 0.1999917 0.5317518 0
vt 0.1123441 0.8351603 0
vt 0.1123441 0.9380139 0
vt 0.1451812 0.4723477 0
vt 0.2167963 0.4056224 0
vt 0.5416783 0.3171915 0
vt 0.6520692 0.3171915 0
vt 0.2884092 0.3388991 0
vt 0.1451812 0.3388971 0
vt 0.2167941 0.2721738 0
vt 0.07356823 0.539071 0
vt 0.001953125 0.4723457 0
vt 0.07356608 0.4056224 0
vt 0.9980469 0.1166367 0
vt 0.8876559 0.1166367 0
vt 0.7673951 0.2228277 0
vt 0.6570042 0.2228277 0
vt 0.5229042 0.001953125 0
vt 0.6570042 0.60877 0
vt 0.7582832 0.60877 0
vt 0.3153176 0.908841 0
vt 0.5416783 0.5262361 0
vt 0.07356608 0.1354018 0
vt 0.1451812 0.2021271 0
vt 0.7673951 0.01378311 0
vt 0.7673951 0.1166367 0
vt 0.2167963 0.1354018 0
vt 0.001953125 0.06867844 0
vt 0.07356823 0.001953125 0
vt 0.1451812 0.06867644 0
vt 0.9980469 0.1199741 0
vt 0.5509043 0.9980469 0
vt 0.5509043 0.8951933 0
vt 0.8738168 0.3020242 0
vt 0.001953125 0.8351603 0
vt 0.6520692 0.4200451 0
vt 0.3202526 0.60877 0
vt 0.001953125 0.9380139 0
vt 0.4075783 0.3020242 0
vt 0.6570042 0.01378311 0
vt 0.4075783 0.001953125 0
vt 0.6570042 0.1166367 0
vt 0.8738168 0.001953125 0
vt 0.2884092 0.4723457 0
vt 0.8829318 0.2935316 0
vt 0.8829318 0.0104457 0
vt 0.001953125 0.2021251 0
vt 0.3293675 0.6172626 0
vt 0.2167941 0.539071 0
vt 0.07356823 0.2688504 0
vt 0.3293675 0.9003485 0
vt 0.3202526 0.908841 0
vt 0.6520692 0.5262361 0
vt 0.5416783 0.4200451 0
vt 0.4125133 0.3020242 0
vt 0.4125133 0.001953125 0
vt 0.6520692 0.4233826 0
vt 0.5229042 0.3020242 0
vt 0.9842078 0.3053616 0
vt 0.5416783 0.4233826 0
vt 0.9842078 0.6054326 0
vt 0.9750928 0.3138541 0
vt 0.6570042 0.8918559 0
vt 0.9750928 0.59694 0
vt 0.2167941 0.2688504 0
vt 0.7582832 0.8918559 0
vt 0.859767 0.2935316 0
vt 0.2884092 0.2021251 0
vt 0.859767 0.0104457 0
vt 0.8688819 0.3020242 0
vt 0.3153176 0.60877 0
vt 0.8688819 0.001953125 0
vt 0.8876559 0.1199741 0
vt 0.6570042 0.1199741 0
vt 0.2049267 0.60877 0
vt 0.2049267 0.908841 0
vt 0.8876559 0.2228277 0
vt 0.9980469 0.2228277 0
vt 0.6431651 0.001953125 0
vt 0.6431651 0.3020242 0
vt 0.7673951 0.1199741 0
vt 0.001953125 0.3388991 0
vt 0.65228 0.2935316 0
vt 0.65228 0.0104457 0
vt 0.2884092 0.06867844 0
vt 0.2167941 0.001953125 0
vt 0.5369541 0.59694 0
vt 0.5369541 0.3138541 0
vt 0.07356823 0.2721738 0
vt 0.753556 0.2935316 0
vt 0.7584909 0.2935316 0
vt 0.6431651 0.3138541 0
vt 0.6382301 0.3138541 0
vt 0.8738168 0.3138541 0
vt 0.4306435 0.6172626 0
vt 0.8738168 0.3053616 0
vt 0.4306435 0.60877 0
vt 0.7444411 0.3138541 0
vt 0.5509043 0.8918559 0
vt 0.6521834 0.8918559 0
vt 0.859767 0.59694 0
vt 0.9842078 0.2935316 0
vt 0.7584909 0.59694 0
vt 0.9842078 0.3020242 0
vt 0.7584909 0.6054326 0
vt 0.8688819 0.6054326 0
vt 0.2971874 0.3020242 0
vt 0.859767 0.3138541 0
vt 0.6521834 0.60877 0
vt 0.2971874 0.001953125 0
vt 0.8688819 0.3053616 0
vt 0.7584909 0.3138541 0
vt 0.9842078 0.0104457 0
vt 0.7584909 0.3053616 0
vt 0.9842078 0.001953125 0
vt 0.7584909 0.0104457 0
vt 0.753556 0.0104457 0
vt 0.7584909 0.001953125 0
vt 0.753556 0.001953125 0
vt 0.5509043 0.60877 0
vt 0.7444411 0.59694 0
vt 0.6382301 0.59694 0
vt 0.6431651 0.59694 0
vt 0.6382301 0.6054326 0
vt 0.6431651 0.6054326 0
vt 0.753556 0.6054326 0
vt 0.4075783 0.3053616 0
vt 0.5278392 0.6054326 0
vt 0.6612953 0.9980469 0
vt 0.6612953 0.8951933 0
vt 0.2971874 0.3053616 0
vt 0.8876559 0.01378311 0
vt 0.5278392 0.3053616 0
vt 0.9980469 0.01378311 0
vt 0.2971874 0.6054326 0
vt 0.6431651 0.3053616 0
vt 0.6382301 0.3053616 0
vt 0.4075783 0.6054326 0
vt 0.753556 0.3053616 0
vt 0.753556 0.3020242 0
vt 0.7584909 0.3020242 0
vt 0.4306435 0.9003485 0
vt 0.8738168 0.59694 0
vt 0.4306435 0.908841 0
vt 0.8738168 0.6054326 0
#end 168 textures vertices 

#begin 32 normals 
vn -0.5774 -0.5774 0.5774
vn -0.5774 -0.5774 -0.5774
vn 0.5774 -0.5774 -0.5774
vn 0.5774 -0.5774 0.5774
vn 0.9045 -0.3015 0.3015
vn 0.9045 -0.3015 -0.3015
vn -0.9045 -0.3015 -0.3015
vn -0.9045 -0.3015 0.3015
vn -0.5774 0.5774 0.5774
vn 0.5774 0.5774 0.5774
vn 0.5774 0.5774 -0.5774
vn -0.5774 0.5774 -0.5774
vn 0.9045 0.3015 0.3015
vn -0.9045 0.3015 0.3015
vn -0.9045 0.3015 -0.3015
vn 0.9045 0.3015 -0.3015
vn -0.3015 0.3015 0.9045
vn 0.3015 0.3015 0.9045
vn -0.3015 0.9045 0.3015
vn 0.3015 -0.3015 0.9045
vn -0.3015 -0.9045 0.3015
vn 0.3015 0.9045 0.3015
vn 0.3015 -0.9045 0.3015
vn -0.3015 -0.3015 0.9045
vn 0.3015 0.9045 -0.3015
vn 0.3015 -0.9045 -0.3015
vn 0.3015 0.3015 -0.9045
vn -0.3015 0.3015 -0.9045
vn -0.3015 -0.3015 -0.9045
vn -0.3015 0.9045 -0.3015
vn -0.3015 -0.9045 -0.3015
vn 0.3015 -0.3015 -0.9045
#end 32 normals 

#begin 54 faces
o boiteLp
usemtl wire_135059008
g boiteLp
s 2
f 1/1/1 2/2/2 3/3/3 4/4/4 
f 5/5/5 6/6/6 7/7/7 8/8/8 
f 9/9/1 10/10/2 11/11/3 12/12/4 
s 4
f 13/13/9 14/14/10 15/15/11 16/16/12 
f 17/17/13 18/18/14 19/19/15 20/20/16 
f 21/21/9 22/22/10 23/23/11 24/24/12 
s 8
f 1/61/1 4/58/4 25/25/10 26/26/9 
f 5/67/5 8/72/8 27/27/17 28/28/18 
f 9/59/1 12/77/4 29/29/10 30/30/9 
f 31/31/19 28/28/18 32/32/20 33/33/21 
f 27/27/17 34/34/22 35/35/23 36/36/24 
f 37/37/1 38/38/4 14/155/10 13/157/9 
f 32/32/20 36/36/24 18/105/14 17/112/13 
f 39/39/1 40/40/4 22/97/10 21/104/9 
s 16
f 12/78/4 11/79/3 41/41/11 29/81/10 
f 34/86/22 42/42/25 43/43/26 35/89/23 
f 40/94/4 44/44/3 23/99/11 22/98/10 
s 32
f 11/80/3 10/76/2 45/45/12 41/83/11 
f 7/73/7 6/70/6 46/46/27 47/47/28 
f 3/65/3 2/63/2 48/48/12 49/49/11 
f 42/88/25 47/47/28 50/50/29 43/91/26 
f 46/46/27 51/51/30 52/52/31 53/53/32 
f 44/96/3 54/54/2 24/101/12 23/100/11 
f 50/50/29 53/53/32 20/109/16 19/108/15 
f 55/55/3 56/56/2 16/153/12 15/152/11 
s 64
f 2/64/2 1/62/1 26/130/9 48/133/12 
f 51/132/30 31/123/19 33/122/21 52/143/31 
f 56/150/2 37/161/1 13/158/9 16/154/12 
s off
f 6/69/6 5/68/5 4/57/4 3/66/3 
f 5/68/5 28/125/18 25/127/10 4/57/4 
f 28/126/18 31/124/19 26/129/9 25/128/10 
f 31/124/19 51/131/30 48/134/12 26/129/9 
f 51/131/30 46/135/27 49/137/11 48/134/12 
f 46/136/27 6/69/6 3/66/3 49/138/11 
f 8/71/8 7/74/7 10/75/2 9/60/1 
f 7/74/7 47/165/28 45/167/12 10/75/2 
f 47/166/28 42/87/25 41/84/11 45/168/12 
f 42/87/25 34/85/22 29/82/10 41/84/11 
f 34/85/22 27/117/17 30/119/9 29/82/10 
f 27/118/17 8/71/8 9/60/1 30/120/9 
f 17/111/13 20/110/16 15/151/11 14/156/10 
f 20/110/16 53/145/32 55/147/3 15/151/11 
f 53/146/32 52/144/31 56/149/2 55/148/3 
f 52/144/31 33/121/21 37/162/1 56/149/2 
f 33/121/21 32/115/20 38/159/4 37/162/1 
f 32/116/20 17/111/13 14/156/10 38/160/4 
f 19/107/15 18/106/14 21/103/9 24/102/12 
f 18/106/14 36/113/24 39/163/1 21/103/9 
f 36/114/24 35/90/23 40/93/4 39/164/1 
f 35/90/23 43/92/26 44/95/3 40/93/4 
f 43/92/26 50/139/29 54/141/2 44/95/3 
f 50/140/29 19/107/15 24/102/12 54/142/2 
s 1
f 36/36/24 32/32/20 28/28/18 27/27/17 
f 53/53/32 50/50/29 47/47/28 46/46/27 
#end 54 faces

#begin properties
#U3DPROPERTIES_02 table {Mesh table {SymPlane table {Point vector3d 0 0 0  Normal vector3d 1 0 0  Threshold double 0.01 Enabled bool false UPos double 0.5 LocalMode bool false } RootGroup CSubMeshGroup {Children table {Tile_0_0 CSubMeshGroup {Children table {} IslandIDs ints { 0 1 2 3 4 5 6 7 8 9 10 11 12 13 14 15 16 17 18 19 20 21 22 23 24 25 26 27 28 29 } BBoxUV box3d 0 0 0 0 0 0 BBox3D box3d 0 0 0 0 0 0 AreaUV double 0 Area3D double 0 IsRoot bool false TopoStable table {Selected bool false Box box3d 0 1 0 1 0 1 U int 0 V int 0 NU int 0 NV int 0 Tiling vector3d 50 50 1  TileRatioMode string "1:1" } IsTile bool true } } IslandIDs ints { } BBoxUV box3d 0 0 0 0 0 0 BBox3D box3d 0 0 0 0 0 0 AreaUV double 0 Area3D double 0 IsRoot bool true TopoStable table {Selected bool false Box box3d 0 1 0 1 0 1 U int 0 V int 0 NU int 1 NV int 1 Tiling vector3d 50 50 1  TileRatioMode string "1:1" Pack table {Rotate table {Mode int 2 Min double 0 Max double 180 Step double 0 } SpacingSize double 0.00390625 MarginSize double 0.001953125 Resolution int 200 Scaling table {Mode int 0 } LayoutScalingMode int 2 MaxMutations int 1 } } IsTile bool false } Maps table {Density table {PrimType string "Polygon" Size int 1 DefaultValue double 1 ScaleType string "Log" MinValue double 0.1 MaxValue double 4 Data doubles { r 54 1 } } Pin table {PrimType string "Vertex" Size int 1 DefaultValue double 0 ScaleType string "Normalized" MinValue double 0 MaxValue double 1 Data doubles { r 168 0 } } Protect table {PrimType string "Vertex" Size int 1 DefaultValue double 0 ScaleType string "Normalized" MinValue double -1 MaxValue double 1 Data doubles { r 168 0 } } } } }
#end properties

#begin 0 fatal error vertex (that Unfold3D cannot handle)
#end 0 fatal error vertex (that Unfold3D cannot handle)

#begin 0 error vertex
#end 0 error vertex
